<svg data-v-423bf9ae="" xmlns="http://www.w3.org/2000/svg" viewBox="0 0 294.26448764510326 60" class="font"><!----><!----><!----><g data-v-423bf9ae="" id="a2343ff0-107c-4467-b0c0-d7455f7fc565" fill="white" transform="matrix(6.471618747139749,0,0,6.471618747139749,1.8120542299231204,-22.84481327699308)"><path d="M5.05 10.45L4.81 10.17L3.64 11.57L1.22 6.67L1.22 6.67Q0.98 6.38 0.59 6.71L0.59 6.71L-0.28 7.37L-0.16 7.57L-0.16 7.57Q0.12 7.11 0.72 8.15L0.72 8.15L2.97 12.69L3.24 12.69L3.85 11.91L5.05 10.45ZM5.69 7.12L5.69 7.12L5.84 7.24L5.84 7.24Q6.34 6.55 7.21 7.48L7.21 7.48L7.21 7.48Q8.07 8.40 7.79 9.44L7.79 9.44L7.79 9.44Q7.51 10.48 6.58 11.57L6.58 11.57L4.16 6.67L4.16 6.67Q3.92 6.38 3.53 6.71L3.53 6.71L2.66 7.37L2.78 7.57L2.78 7.57Q3.06 7.11 3.66 8.15L3.66 8.15L5.91 12.69L6.18 12.69L6.79 11.91L6.79 11.91Q7.75 10.77 8.45 9.74L8.45 9.74L8.45 9.74Q9.15 8.71 8.66 7.57L8.66 7.57L8.66 7.57Q8.18 6.43 7.29 6.17L7.29 6.17L7.29 6.17Q6.41 5.91 5.69 7.12ZM12.74 6.60L12.74 6.60L12.74 6.60Q11.68 6.43 10.75 7.26L10.75 7.26L10.75 7.26Q9.82 8.09 9.56 9.20L9.56 9.20L9.56 9.20Q9.30 10.31 9.72 11.26L9.72 11.26L9.72 11.26Q10.14 12.22 11.28 12.62L11.28 12.62L11.28 12.62Q12.21 12.93 13.21 12.18L13.21 12.18L13.21 12.18Q14.22 11.43 14.33 10.84L14.33 10.84L14.12 10.68L14.12 10.68Q13.30 11.85 12.52 11.81L12.52 11.81L12.52 11.81Q11.74 11.76 11.36 11.46L11.36 11.46L11.36 11.46Q10.97 11.15 10.76 10.80L10.76 10.80L12.65 9.54L12.65 9.54Q14.10 8.65 13.95 7.70L13.95 7.70L13.95 7.70Q13.81 6.76 12.74 6.60ZM10.31 8.75L10.31 8.75L10.31 8.75Q10.32 8.12 10.82 7.58L10.82 7.58L10.82 7.58Q11.33 7.04 11.93 7.19L11.93 7.19L11.93 7.19Q12.52 7.34 12.76 8.00L12.76 8.00L12.76 8.00Q13.00 8.67 12.70 9.02L12.70 9.02L12.70 9.02Q12.41 9.37 10.58 10.40L10.58 10.40L10.58 10.40Q10.42 10.04 10.36 9.71L10.36 9.71L10.36 9.71Q10.30 9.37 10.31 8.75ZM17.65 6.53L17.65 6.53L17.65 6.53Q16.99 6.63 16.54 6.92L16.54 6.92L16.54 6.92Q16.08 7.21 15.73 7.57L15.73 7.57L15.73 7.57Q15.37 7.94 15.27 8.43L15.27 8.43L15.27 8.43Q15.18 8.93 15.60 9.37L15.60 9.37L15.60 9.37Q16.03 9.80 17.08 10.02L17.08 10.02L17.08 10.02Q18.14 10.24 18.54 10.47L18.54 10.47L18.54 10.47Q18.94 10.70 19.02 11.11L19.02 11.11L19.02 11.11Q19.11 11.53 18.82 11.79L18.82 11.79L18.82 11.79Q18.52 12.05 17.74 11.93L17.74 11.93L17.74 11.93Q16.96 11.81 16.55 11.55L16.55 11.55L16.55 11.55Q16.15 11.29 15.79 10.89L15.79 10.89L15.79 10.89Q15.43 10.50 15.70 10.34L15.70 10.34L15.61 10.25L14.84 10.84L14.84 10.84Q14.72 11.20 15.11 11.70L15.11 11.70L15.11 11.70Q15.50 12.21 16.08 12.52L16.08 12.52L16.08 12.52Q16.67 12.82 17.39 12.80L17.39 12.80L17.39 12.80Q18.12 12.78 18.72 12.34L18.72 12.34L18.72 12.34Q19.32 11.90 19.62 11.35L19.62 11.35L19.62 11.35Q19.92 10.81 19.83 10.36L19.83 10.36L19.83 10.36Q19.74 9.91 19.32 9.56L19.32 9.56L19.32 9.56Q18.91 9.20 17.60 8.95L17.60 8.95L17.60 8.95Q16.30 8.70 16.24 8.09L16.24 8.09L16.24 8.09Q16.19 7.48 16.78 7.31L16.78 7.31L16.78 7.31Q17.38 7.14 18.09 7.45L18.09 7.45L18.09 7.45Q18.81 7.76 18.53 8.13L18.53 8.13L18.61 8.24L19.42 7.40L19.42 7.40Q19.32 6.93 18.82 6.68L18.82 6.68L18.82 6.68Q18.31 6.43 17.65 6.53ZM22.21 3.96L21.35 4.63L21.35 4.63Q21.83 4.55 21.67 6.59L21.67 6.59L21.10 6.62L20.16 7.56L20.32 7.83L20.32 7.83Q20.75 7.33 21.59 7.41L21.59 7.41L21.59 7.41Q21.45 11.04 21.59 11.58L21.59 11.58L21.59 11.58Q21.72 12.11 22.31 12.68L22.31 12.68L22.31 12.68Q22.76 12.24 24.03 11.30L24.03 11.30L23.95 10.98L23.95 10.98Q22.65 11.88 22.54 10.99L22.54 10.99L22.54 10.99Q22.44 10.09 22.57 7.46L22.57 7.46L23.40 7.46L24.03 6.75L23.97 6.61L22.61 6.64L22.61 4.83L22.61 4.83Q22.54 4.25 22.21 3.96L22.21 3.96ZM25.86 3.53L24.91 4.05L24.91 4.05Q25.20 4.42 25.19 5.35L25.19 5.35L25.19 5.35Q25.01 11.53 25.12 12.01L25.12 12.01L25.12 12.01Q25.23 12.50 25.80 12.80L25.80 12.80L27.12 11.96L26.98 11.72L26.98 11.72Q26.48 12.04 26.23 11.35L26.23 11.35L26.23 11.35Q25.98 10.66 26.20 4.89L26.20 4.89L26.20 4.89Q26.17 3.89 25.86 3.53L25.86 3.53ZM30.24 6.45L30.24 6.45Q29.09 7.21 28.61 7.77L28.61 7.77L28.61 7.77Q28.14 8.33 27.95 8.89L27.95 8.89L27.95 8.89Q27.75 9.46 27.88 10.32L27.88 10.32L27.88 10.32Q28.01 11.17 28.88 11.96L28.88 11.96L28.88 11.96Q29.74 12.75 30.26 12.75L30.26 12.75L30.26 12.75Q30.78 12.76 31.90 11.73L31.90 11.73L31.90 11.73Q32.33 11.34 32.72 10.82L32.72 10.82L32.72 10.82Q33.11 10.31 33.23 9.74L33.23 9.74L33.23 9.74Q33.34 9.17 33.16 8.50L33.16 8.50L33.16 8.50Q32.99 7.83 32.18 7.04L32.18 7.04L32.18 7.04Q31.38 6.25 30.24 6.45L30.24 6.45ZM29.87 7.26L29.87 7.26L29.87 7.26Q30.66 7.08 31.60 8.24L31.60 8.24L31.60 8.24Q32.53 9.41 32.33 10.23L32.33 10.23L32.33 10.23Q32.14 11.06 31.48 11.56L31.48 11.56L31.48 11.56Q30.82 12.05 30.08 11.45L30.08 11.45L30.08 11.45Q29.35 10.84 28.91 10.15L28.91 10.15L28.91 10.15Q28.47 9.46 28.78 8.45L28.78 8.45L28.78 8.45Q29.09 7.43 29.87 7.26ZM36.61 7.12L36.61 7.12L36.77 7.24L36.77 7.24Q37.27 6.55 38.13 7.48L38.13 7.48L38.13 7.48Q38.99 8.40 38.71 9.44L38.71 9.44L38.71 9.44Q38.43 10.48 37.51 11.57L37.51 11.57L35.09 6.67L35.09 6.67Q34.84 6.38 34.45 6.71L34.45 6.71L33.58 7.37L33.71 7.57L33.71 7.57Q33.99 7.11 34.58 8.15L34.58 8.15L36.83 12.69L37.11 12.69L37.71 11.91L37.71 11.91Q38.67 10.77 39.37 9.74L39.37 9.74L39.37 9.74Q40.07 8.71 39.59 7.57L39.59 7.57L39.59 7.57Q39.10 6.43 38.22 6.17L38.22 6.17L38.22 6.17Q37.33 5.91 36.61 7.12ZM43.61 6.60L43.61 6.60L43.61 6.60Q42.54 6.43 41.61 7.26L41.61 7.26L41.61 7.26Q40.68 8.09 40.42 9.20L40.42 9.20L40.42 9.20Q40.16 10.31 40.58 11.26L40.58 11.26L40.58 11.26Q41.00 12.22 42.14 12.62L42.14 12.62L42.14 12.62Q43.07 12.93 44.08 12.18L44.08 12.18L44.08 12.18Q45.08 11.43 45.19 10.84L45.19 10.84L44.99 10.68L44.99 10.68Q44.17 11.85 43.39 11.81L43.39 11.81L43.39 11.81Q42.61 11.76 42.22 11.46L42.22 11.46L42.22 11.46Q41.84 11.15 41.62 10.80L41.62 10.80L43.52 9.54L43.52 9.54Q44.96 8.65 44.82 7.70L44.82 7.70L44.82 7.70Q44.67 6.76 43.61 6.60ZM41.17 8.75L41.17 8.75L41.17 8.75Q41.18 8.12 41.69 7.58L41.69 7.58L41.69 7.58Q42.19 7.04 42.79 7.19L42.79 7.19L42.79 7.19Q43.39 7.34 43.62 8.00L43.62 8.00L43.62 8.00Q43.86 8.67 43.57 9.02L43.57 9.02L43.57 9.02Q43.27 9.37 41.45 10.40L41.45 10.40L41.45 10.40Q41.29 10.04 41.23 9.71L41.23 9.71L41.23 9.71Q41.17 9.37 41.17 8.75Z"></path></g><!----><!----></svg>